<svg width="91" height="18" viewBox="0 0 91 18" fill="none" xmlns="http://www.w3.org/2000/svg">
<path d="M0.9375 17V1H2.875V15.2812H10.3125V17H0.9375ZM13.0625 17V5H14.9063V17H13.0625ZM14 3C13.6406 3 13.3307 2.8776 13.0703 2.63281C12.8151 2.38802 12.6875 2.09375 12.6875 1.75C12.6875 1.40625 12.8151 1.11198 13.0703 0.867187C13.3307 0.622396 13.6406 0.5 14 0.5C14.3594 0.5 14.6667 0.622396 14.9219 0.867187C15.1823 1.11198 15.3125 1.40625 15.3125 1.75C15.3125 2.09375 15.1823 2.38802 14.9219 2.63281C14.6667 2.8776 14.3594 3 14 3ZM25.1582 9.28125V11H18.1582V9.28125H25.1582ZM28.6523 1H30.9648L36.4023 14.2812H36.5898L42.0273 1H44.3398V17H42.5273V4.84375H42.3711L37.3711 17H35.6211L30.6211 4.84375H30.4648V17H28.6523V1ZM51.5059 17.2813C50.7454 17.2813 50.0553 17.138 49.4355 16.8516C48.8158 16.5599 48.3236 16.1406 47.959 15.5938C47.5944 15.0417 47.4121 14.375 47.4121 13.5937C47.4121 12.9062 47.5475 12.349 47.8184 11.9219C48.0892 11.4896 48.4512 11.151 48.9043 10.9062C49.3574 10.6615 49.8574 10.4792 50.4043 10.3594C50.9564 10.2344 51.5111 10.1354 52.0684 10.0625C52.7975 9.96875 53.3887 9.89844 53.8418 9.85156C54.3001 9.79948 54.6335 9.71354 54.8418 9.59375C55.0553 9.47396 55.1621 9.26562 55.1621 8.96875V8.90625C55.1621 8.13542 54.9512 7.53646 54.5293 7.10937C54.1126 6.68229 53.4798 6.46875 52.6309 6.46875C51.7507 6.46875 51.0605 6.66146 50.5605 7.04687C50.0605 7.43229 49.709 7.84375 49.5059 8.28125L47.7559 7.65625C48.0684 6.92708 48.485 6.35937 49.0059 5.95312C49.5319 5.54167 50.1048 5.25521 50.7246 5.09375C51.3496 4.92708 51.9642 4.84375 52.5684 4.84375C52.9538 4.84375 53.3965 4.89062 53.8965 4.98437C54.4017 5.07292 54.8887 5.25781 55.3574 5.53906C55.8314 5.82031 56.2246 6.24479 56.5371 6.8125C56.8496 7.38021 57.0059 8.14062 57.0059 9.09375V17H55.1621V15.375H55.0684C54.9434 15.6354 54.735 15.9141 54.4434 16.2109C54.1517 16.5078 53.7637 16.7604 53.2793 16.9687C52.7949 17.1771 52.2038 17.2813 51.5059 17.2813ZM51.7871 15.625C52.5163 15.625 53.1309 15.4818 53.6309 15.1953C54.1361 14.9089 54.5163 14.5391 54.7715 14.0859C55.0319 13.6328 55.1621 13.1562 55.1621 12.6562V10.9687C55.084 11.0625 54.9121 11.1484 54.6465 11.2266C54.3861 11.2995 54.084 11.3646 53.7402 11.4219C53.4017 11.474 53.071 11.5208 52.748 11.5625C52.4303 11.599 52.1725 11.6302 51.9746 11.6562C51.4954 11.7187 51.0475 11.8203 50.6309 11.9609C50.2194 12.0964 49.8861 12.3021 49.6309 12.5781C49.3809 12.849 49.2559 13.2187 49.2559 13.6875C49.2559 14.3281 49.4928 14.8125 49.9668 15.1406C50.446 15.4635 51.0527 15.625 51.7871 15.625ZM60.3711 17V5H62.1523V6.8125H62.2773C62.4961 6.21875 62.8919 5.73698 63.4648 5.36719C64.0378 4.99739 64.6836 4.8125 65.4023 4.8125C65.5378 4.8125 65.707 4.8151 65.9102 4.82031C66.1133 4.82552 66.2669 4.83333 66.3711 4.84375V6.71875C66.3086 6.70312 66.1654 6.67969 65.9414 6.64844C65.7227 6.61198 65.4909 6.59375 65.2461 6.59375C64.6628 6.59375 64.1419 6.71615 63.6836 6.96094C63.2305 7.20052 62.8711 7.53385 62.6055 7.96094C62.3451 8.38281 62.2148 8.86458 62.2148 9.40625V17H60.3711ZM76.1191 12.0937V5H77.9629V17H76.1191V14.9687H75.9941C75.7129 15.5781 75.2754 16.0964 74.6816 16.5234C74.0879 16.9453 73.3379 17.1563 72.4316 17.1563C71.6816 17.1563 71.015 16.9922 70.4316 16.6641C69.8483 16.3307 69.39 15.8307 69.0566 15.1641C68.7233 14.4922 68.5566 13.6458 68.5566 12.625V5H70.4004V12.5C70.4004 13.375 70.6452 14.0729 71.1348 14.5938C71.6296 15.1146 72.2598 15.375 73.0254 15.375C73.4837 15.375 73.9499 15.2578 74.4238 15.0234C74.903 14.7891 75.304 14.4297 75.627 13.9453C75.9551 13.4609 76.1191 12.8437 76.1191 12.0937ZM89.8398 7.6875L88.1836 8.15625C88.0794 7.88021 87.9258 7.61198 87.7227 7.35156C87.5247 7.08594 87.2539 6.86719 86.9102 6.69531C86.5664 6.52344 86.1263 6.4375 85.5898 6.4375C84.8555 6.4375 84.2435 6.60677 83.7539 6.94531C83.2695 7.27865 83.0273 7.70312 83.0273 8.21875C83.0273 8.67708 83.194 9.03906 83.5273 9.30469C83.8607 9.57031 84.3815 9.79167 85.0898 9.96875L86.8711 10.4063C87.944 10.6667 88.7435 11.0651 89.2695 11.6016C89.7956 12.1328 90.0586 12.8177 90.0586 13.6562C90.0586 14.3437 89.8607 14.9583 89.4648 15.5C89.0742 16.0417 88.5273 16.4688 87.8242 16.7813C87.1211 17.0938 86.3034 17.25 85.3711 17.25C84.1471 17.25 83.1341 16.9844 82.332 16.4531C81.5299 15.9219 81.0221 15.1458 80.8086 14.125L82.5586 13.6875C82.7253 14.3333 83.0404 14.8177 83.5039 15.1406C83.9727 15.4635 84.5846 15.625 85.3398 15.625C86.1992 15.625 86.8815 15.4427 87.3867 15.0781C87.8971 14.7083 88.1523 14.2656 88.1523 13.75C88.1523 13.3333 88.0065 12.9844 87.7148 12.7031C87.4232 12.4167 86.9753 12.2031 86.3711 12.0625L84.3711 11.5937C83.2721 11.3333 82.4648 10.9297 81.9492 10.3828C81.4388 9.83073 81.1836 9.14062 81.1836 8.3125C81.1836 7.63542 81.3737 7.03646 81.7539 6.51562C82.1393 5.99479 82.6628 5.58594 83.3242 5.28906C83.9909 4.99219 84.7461 4.84375 85.5898 4.84375C86.7773 4.84375 87.7096 5.10417 88.3867 5.625C89.069 6.14583 89.5534 6.83333 89.8398 7.6875Z" fill="#DD188E"/>
</svg>
